<svg xmlns="http://www.w3.org/2000/svg" xmlns:xlink="http://www.w3.org/1999/xlink" width="260.849" height="396.093" viewBox="0 0 260.849 396.093"><path fill="#FFF" stroke="#000" stroke-miterlimit="10" d="M222.295 79.065c0 6.627-4.743 12-10.593 12H53.388c-5.85 0-10.593-5.373-10.593-12V40.344c0-6.627 4.743-12 10.593-12h158.313c5.851 0 10.593 5.373 10.593 12v38.721z"/><circle fill="#231F20" cx="571.103" cy="-291.128" r="77.897"/><circle fill="#FFF" stroke="#231F20" stroke-miterlimit="10" cx="843.333" cy="-242.574" r="82.667"/><circle fill="#FFF" stroke="#231F20" stroke-miterlimit="10" cx="883.333" cy="-208.462" r="82.667"/><radialGradient id="a" cx="375.142" cy="-55.219" r="68.257" gradientUnits="userSpaceOnUse"><stop offset="0" stop-color="#fff"/><stop offset=".552" stop-color="#fff"/><stop offset="1" stop-color="#9900e5"/></radialGradient><circle fill="url(#a)" cx="375.142" cy="-55.219" r="68.257"/><circle fill="#FFF" cx="375.128" cy="-55.718" r="56.924"/><radialGradient id="b" cx="375.142" cy="-55.718" r="56.424" gradientUnits="userSpaceOnUse"><stop offset=".546" stop-color="#fff"/><stop offset=".624" stop-color="#fbfbfb" stop-opacity=".867"/><stop offset=".7" stop-color="#efefef" stop-opacity=".735"/><stop offset=".777" stop-color="#dbdbdb" stop-opacity=".604"/><stop offset=".853" stop-color="silver" stop-opacity=".473"/><stop offset=".928" stop-color="#9c9c9c" stop-opacity=".344"/><stop offset="1" stop-color="#737373" stop-opacity=".22"/></radialGradient><circle fill="url(#b)" cx="375.142" cy="-55.718" r="56.424"/><ellipse fill="#FFF" stroke="#231F20" stroke-miterlimit="10" cx="753" cy="-99.922" rx="22.408" ry="6.861"/><ellipse fill="#FFF" stroke="#231F20" stroke-miterlimit="10" cx="756.779" cy="-93.061" rx="18.629" ry="7"/><ellipse fill="#FFF" stroke="#231F20" stroke-miterlimit="10" cx="815.474" cy="-66.427" rx="9.989" ry="9.25"/><path fill="#C6F" d="M66.575 35.821c0 1.051-.07 2.021-.21 2.911s-.329 1.706-.562 2.446a13.18 13.18 0 0 1-.801 1.997c-.3.591-.6 1.11-.9 1.561-.731 1.068-1.547 1.931-2.447 2.587.881 0 1.659.131 2.334.395a5.911 5.911 0 0 1 1.757 1.039c.497.432.915.924 1.252 1.477.337.554.619 1.111.843 1.674.506 1.35.806 2.878.9 4.584h-4.246c0-.619-.066-1.168-.197-1.646a5.284 5.284 0 0 0-.506-1.252 3.903 3.903 0 0 0-.703-.899 4.961 4.961 0 0 0-.816-.619c-.637-.375-1.369-.59-2.193-.646h-5.09v5.062h-4.218v-20.67h4.218v9.393c.881 0 1.663-.135 2.348-.408a6.312 6.312 0 0 0 1.786-1.055c.506-.43.942-.928 1.308-1.49s.67-1.143.914-1.742c.562-1.369.918-2.935 1.069-4.697h4.16zM85.304 56.491l-1.068-3.037h-8.324l-1.068 3.037h-4.668l7.367-20.641h5.062l7.368 20.641h-4.669zm-7.874-7.283h5.287l-2.644-7.396-2.643 7.396zM108.223 49.151c.543.487 1.012 1.035 1.406 1.645s.717 1.238.97 1.885.436 1.298.548 1.954c.112.657.168 1.275.168 1.856h-4.246c0-.132-.014-.352-.042-.661s-.089-.651-.183-1.026-.234-.76-.421-1.153a4.122 4.122 0 0 0-.774-1.097 3.677 3.677 0 0 0-1.223-.816c-.487-.205-1.078-.309-1.771-.309h-5.09v5.062h-4.218v-20.67h9.309c.074 0 .281.015.618.043.338.027.745.112 1.224.253.478.14.998.352 1.561.632.562.281 1.106.686 1.631 1.21 1.556 1.556 2.334 3.693 2.334 6.411 0 1.068-.164 1.996-.492 2.785-.33.787-.766 1.452-1.309 1.996zm-5.568-1.968c.225 0 .515-.033.871-.098a3.207 3.207 0 0 0 1.041-.395c.337-.196.623-.479.857-.844.234-.365.351-.857.351-1.477 0-.975-.126-1.747-.379-2.319-.253-.572-.553-1.003-.9-1.294-.348-.29-.699-.479-1.055-.562-.356-.084-.628-.127-.816-.127h-5.062v7.115h5.092zM128.019 56.491l-1.068-3.037h-8.324l-1.068 3.037h-4.668l7.367-20.641h5.062l7.368 20.641h-4.669zm-7.874-7.283h5.287l-2.643-7.396-2.644 7.396zM144.47 56.462a9.92 9.92 0 0 1-4.007-.814 10.372 10.372 0 0 1-3.262-2.222 10.684 10.684 0 0 1-2.208-3.276 9.922 9.922 0 0 1-.815-4.008c0-1.424.271-2.76.815-4.007a10.672 10.672 0 0 1 2.208-3.276 10.386 10.386 0 0 1 3.262-2.221 9.905 9.905 0 0 1 4.007-.816c1.425 0 2.76.272 4.007.816a10.382 10.382 0 0 1 3.261 2.221 10.684 10.684 0 0 1 2.208 3.276 9.928 9.928 0 0 1 .815 4.007 9.922 9.922 0 0 1-.815 4.008 10.672 10.672 0 0 1-2.208 3.276 10.379 10.379 0 0 1-3.261 2.222 9.94 9.94 0 0 1-4.007.814zm0-16.395a5.84 5.84 0 0 0-2.362.479 6.02 6.02 0 0 0-1.912 1.309 6.265 6.265 0 0 0-1.293 1.926 5.838 5.838 0 0 0-.479 2.361c0 .844.159 1.631.479 2.363.318.73.75 1.373 1.293 1.926a6.014 6.014 0 0 0 1.912 1.307c.731.32 1.519.479 2.362.479.824 0 1.603-.158 2.333-.479a6.21 6.21 0 0 0 3.234-3.233 5.85 5.85 0 0 0 .478-2.363c0-.843-.159-1.631-.478-2.361a6.197 6.197 0 0 0-3.234-3.235 5.784 5.784 0 0 0-2.333-.479zM174.108 35.821c0 1.051-.07 2.021-.21 2.911s-.328 1.706-.562 2.446a13.18 13.18 0 0 1-.801 1.997c-.3.591-.6 1.11-.9 1.561-.731 1.068-1.547 1.931-2.447 2.587.881 0 1.659.131 2.334.395a5.911 5.911 0 0 1 1.757 1.039c.497.432.915.924 1.252 1.477.337.554.619 1.111.843 1.674.506 1.35.806 2.878.9 4.584h-4.246c0-.619-.066-1.168-.197-1.646a5.284 5.284 0 0 0-.506-1.252 3.876 3.876 0 0 0-.703-.899 4.961 4.961 0 0 0-.816-.619c-.637-.375-1.369-.59-2.193-.646h-5.09v5.062h-4.218v-20.67h4.218v9.393c.881 0 1.663-.135 2.348-.408a6.312 6.312 0 0 0 1.786-1.055 6.85 6.85 0 0 0 1.308-1.49c.366-.562.67-1.143.914-1.742.562-1.369.918-2.935 1.068-4.697h4.161zM184.036 40.124v4.189h9.28v4.304h-9.28v3.543h9.646v4.302h-13.92V35.851h13.92v4.273h-9.646z"/><path fill="#231F20" d="M134.036 84.206h-4.387V63.537h4.556l5.568 14.117 5.484-14.117h4.527v20.669h-4.387v-8.38l-3.458 8.38h-4.331l-3.571-8.521v8.521zM168.231 84.206l-1.068-3.037h-8.324l-1.069 3.037h-4.668l7.367-20.641h5.062l7.368 20.641h-4.668zm-7.874-7.283h5.287L163 69.526l-2.643 7.397zM188.815 63.565h4.387v20.641h-4.837l-8.886-13.385v13.385h-4.387V63.537h4.836l8.886 13.386V63.565z"/><defs><circle id="c" cx="45.073" cy="-129.074" r="56.424"/></defs><clipPath id="d"><use xlink:href="#c" overflow="visible"/></clipPath><path clip-path="url(#d)" fill-rule="evenodd" clip-rule="evenodd" d="M95.351-161.916c-.424-.282-.885-.363-1.495-.214-.194-1.335-.027-3.033-.641-3.95-1.384-.463-1.864.818-1.922 2.028-.085-.982.204-2.339-.213-2.989-3.378-.477-2.175 5.427-2.562 8.542-.134 1.079-.429 2.276-.706 3.227a4.096 4.096 0 0 1-.255.83c.08-.243.167-.523.255-.83.227-1.173-.093-2.289-.148-3.761-.064-1.708.201-5.75-.961-5.766-2.069-.029-1.401 3.063-1.495 4.485-.068 1.03-.282 2.247-.427 3.417-.436 3.519-1.518 6.808-3.096 8.114-.675.251-1.188.664-2.242.533-.675-1.604-.969-5.244-2.562-6.299-.401-.265-1.158-.498-1.708-.32-1.235.4-.258 2.946.107 4.271.536 1.946 1.208 3.086 1.281 5.018 1.704 1.677 2.705 5.436 5.338 5.766.404.97.41 2.589.174 3.922.038.241-.353 1.683-.561 2.136-.096.321-.21.638-.335.951-.054 1.92-5.659 18.758-7.605 20.644-.111-1.144.138-1.393-.213-1.21-.855-4.024-.062-10.642-1.388-13.951-1.016-2.536-1.994-5.763-5.445-4.484-.481-.124-.605-.604-1.174-.641-.534 0-.562-.098-.534 0-.701-.024-.884.469-1.387.641-.912-.979-3.046-.553-3.737.427-1.57-1.782-4.09 1.777-4.057 1.922-.187.84-.86 1.145-.748 2.136-3.074-.252-6.072 1.103-9.182.854-1.687-.135-3.312-1.093-5.125-.854-1.973.92-3.962 1.436-4.271 3.843-.432 3.383 1.959 5.201 5.659 5.018 2.019-.472 3.372-1.61 4.912-2.562 2.308-.432 4.528-.952 6.939-1.281.294.772.306 1.829.427 2.775.894 1.277 3.069 1.273 4.377 2.136.379.165 3.411 1.037 3.737 2.883.248 1.401.314 5.315.249 6.726-.021.458-.012 1.707-.023 1.923a7.005 7.005 0 0 1-.25 1.536c-.172 1.586-.742 3.045-.937 4.442-.032.281-.339 1.16-.676.854.125-.695.612-3.343.569-3.63-.039.009-.074.021-.112.03-.575.822-1.373 1.507-2.385 2.101-2.098 1.232-4.237 2.413-6.668 2.78-1.174.177-2.365.212-3.55.185-1.089-.026-2.288.021-3.356-.099-.552-.062-1.072-.217-1.653-.244-.632-.03-1.265-.049-1.895-.106-1.244-.115-2.478-.394-3.533-1.093a1.9 1.9 0 0 1-.502-.482c-1.373-.604-2.844-1.097-4.104-1.149-.412-1.063.537-2.079.961-2.455-.75-.781-2.567-1.419-4.271-1.603-.374-.693-1.386-.748-2.243-.96-.351.189.284.704-.32.641-1.203-3.363 1.205-3.433 3.31-4.592 1.292-.71 2.226-1.268 2.721-2.131.439-.441.554-.272.689-.757.455-1.594-1.678-2.086-2.022-3.197-.298-.961.53-1.971.213-3.179-.362-.292-.295-.415-1.281-.238-2.393.646-3.449-2.467-2.634-4.151.009-.057.504-1.275 1.246-1.507-.243-1.59-2.708-1.414-2.456-3.097.083-.552.877-.851 1.068-1.281 1.009-2.28-1.711-2.726-3.417-3.096-2.624-.571-4.314-.646-4.698-3.204-1.139-1.145-2.477-1.184-3.63-2.029-.779-.571-1.774-1.733-3.203-2.242l-1.251-.229c.632-.465 3.378.195 3.915-.133-.078-.277-.852-.88-1.061-1.026.063.044.392-.176.416-.239-.598-.146-1.138-.725-1.758-.781-.686-.061-1.417-.002-2.102-.077-.736-.081-1.486-.062-2.223-.001-1.546.128-3.069.473-4.564.878-1.282.594-2.623 1.045-3.935 1.564-1.195.473-2.415.958-3.526 1.61-.547.321-1.214.572-1.725.925-.578.401-1.064 1.098-1.546 1.61-.738.784-1.327 1.647-2 2.476-.736.908-1.197 1.82-1.723 2.846-.146.284-.237.285-.427.518-.491.603-.593 1.515-.802 2.242-.275.952-.465 1.913-.479 2.907-.024 1.622-.206 3.178.062 4.793.021-.009.039-.021.065-.024.013-.002.517 3.124.597 3.354.284.817.958 1.303 1.331 2.045a1.746 1.746 0 0 1-.02-.068c.256.467.63.736 1.015 1.079.919.818 1.589 1.715 2.641 2.412 1.275.844 2.66 1.509 3.931 2.359.701.471 1.369.998 1.929 1.631.583.13.986.438 1.334.801.05.04.1.077.152.121.224.19.415.465.555.753.088.014.159.071.202.247.147 1.917.439 3.688.427 5.766.301.303.469.788.213.854-.241.293-.472.596-.534 1.068-1.03 1.438-2.423 2.517-3.096 4.376-.682 1.886-.681 4.718-1.495 6.3-.656 1.274-2.047 2.036 7.181 14.688l29.883 5.298 25.62-5.261 16.667-6.391c.11-1.901-.871-8.935-.984-10.897.847-.345 1.656-.883 2.563-1.387.886-.496 1.898-.711 2.775-1.176 1.577-.833 2.536-4.846 2.99-6.939.758-3.495 2.091-6.841 2.776-10.677.329-1.843.756-3.747.747-5.125-.005-.912 1.323-15.077 1.282-15.161.162-1.013.887-5.049.961-6.086.048-.674-.043-1.345 0-2.029.131-2.066 1.059-3.869 1.494-5.231.469-1.466.496-3.403.854-5.019.515-2.316 1.126-4.417 1.815-6.299.342-.935.071-2.111.32-3.203.271-1.189.388-2.741.32-4.165z"/><circle fill="#FFF" stroke="#231F20" stroke-miterlimit="10" cx="375.277" cy="77.727" r="68.257"/><circle fill="#FFF" stroke="#231F20" stroke-miterlimit="10" cx="375.277" cy="77.727" r="56.424"/><ellipse fill="none" cx="375.338" cy="76.103" rx="66.5" ry="68.363"/><text transform="matrix(.7504 .619 -.6363 .7714 330.502 126.772)" fill="#231F20" font-family="'Helvetica-Bold'" font-size="12">K</text><text transform="matrix(.8328 .5027 -.5168 .8561 338.107 132.918)" fill="#231F20" font-family="'Helvetica-Bold'" font-size="12">A</text><text transform="matrix(.8982 .3736 -.384 .9233 346.52 137.883)" fill="#231F20" font-family="'Helvetica-Bold'" font-size="12">R</text><text transform="matrix(.9442 .2341 -.2406 .9706 355.601 141.548)" fill="#231F20" font-family="'Helvetica-Bold'" font-size="12">A</text><text transform="matrix(.9691 .0837 -.0861 .9963 365.171 143.832)" fill="#231F20" font-family="'Helvetica-Bold'" font-size="12">O</text><text transform="matrix(.9705 -.0656 .0675 .9977 375.562 144.602)" fill="#231F20" font-family="'Helvetica-Bold'" font-size="12">K</text><text transform="matrix(.9508 -.2056 .2114 .9774 385.29 143.823)" fill="#231F20" font-family="'Helvetica-Bold'" font-size="12">E</text><text transform="matrix(.9247 -.3018 .3102 .9507 393.937 141.778)" fill="#231F20" font-family="'Helvetica-Bold'" font-size="12"></text><text transform="matrix(.8827 -.4086 .4201 .9075 398.201 140.513)" fill="#231F20" font-family="'Helvetica-Bold'" font-size="12">M</text><text transform="matrix(.8069 -.5433 .5586 .8295 408.231 135.686)" fill="#231F20" font-family="'Helvetica-Bold'" font-size="12">A</text><text transform="matrix(.7196 -.6545 .6728 .7398 416.265 130.157)" fill="#231F20" font-family="'Helvetica-Bold'" font-size="12">N</text><circle fill="none" cx="375.142" cy="78.014" r="56.05"/><ellipse fill="none" cx="880.758" cy="95.278" rx="66.5" ry="68.362"/><text transform="matrix(.7469 -.6232 .6406 .7679 835.645 44.868)" fill="#231F20" font-family="'Helvetica-Bold'" font-size="12">K</text><text transform="matrix(.8219 -.5204 .5349 .8449 842.372 39.282)" fill="#231F20" font-family="'Helvetica-Bold'" font-size="12">A</text><text transform="matrix(.8837 -.4066 .4179 .9085 849.792 34.61)" fill="#231F20" font-family="'Helvetica-Bold'" font-size="12">R</text><text transform="matrix(.9303 -.2841 .2921 .9564 857.76 30.967)" fill="#231F20" font-family="'Helvetica-Bold'" font-size="12">A</text><text transform="matrix(.9609 -.1513 .1556 .9878 866.12 28.413)" fill="#231F20" font-family="'Helvetica-Bold'" font-size="12">O</text><text transform="matrix(.9726 -.0166 .0171 .9999 875.416 26.997)" fill="#231F20" font-family="'Helvetica-Bold'" font-size="12">K</text><text transform="matrix(.9667 .1084 -.1115 .9938 884.186 26.888)" fill="#231F20" font-family="'Helvetica-Bold'" font-size="12">E</text><text transform="matrix(.9528 .196 -.2015 .9795 892.293 27.919)" fill="#231F20" font-family="'Helvetica-Bold'" font-size="12"></text><text transform="matrix(.9266 .2959 -.3042 .9526 895.877 28.501)" fill="#231F20" font-family="'Helvetica-Bold'" font-size="12">M</text><text transform="matrix(.8745 .426 -.438 .899 905.412 31.62)" fill="#231F20" font-family="'Helvetica-Bold'" font-size="12">A</text><text transform="matrix(.8104 .5381 -.5532 .8331 913.28 35.48)" fill="#231F20" font-family="'Helvetica-Bold'" font-size="12">N</text><g stroke="#FFF" stroke-miterlimit="10"><path fill="#231F20" stroke-width=".185" d="M204.352 76.041c2.029.276 3.871-1.101 4.108-3.085l5.184-30.463c.242-1.975-1.485-3.4-3.513-3.681l.665-4.293c-2.026-.274-3.865 1.106-4.108 3.081l-5.65 34.346c-.239 1.977 1.206 3.805 3.232 4.087l.082.008z"/><path fill="#231F20" stroke-width=".5" d="M205.16 85.243c3.734.006 6.194-4.558 5.502-8.179-.685-3.621-4.82-5.831-7.997-4.938-3.174.894-5.192 4.559-4.502 8.181.688 3.621 3.694 4.931 6.997 4.936z"/><path fill="none" stroke-width=".5" d="M208.894 44.395l-3.525 21.958"/></g><path d="M630.853-36.858h2.431l3.825 9.112h.068l3.791-9.112h2.431v12.036h-1.632v-9.894h-.034l-4.063 9.894h-1.088l-4.063-9.894h-.034v9.894h-1.632v-12.036zM646.867-31.894a4.266 4.266 0 0 1 1.496-.893 5.122 5.122 0 0 1 1.7-.298c.589 0 1.096.074 1.521.221.425.147.773.346 1.045.595.272.249.473.535.604.858.13.323.195.66.195 1.011v4.114a17 17 0 0 0 .017.782c.011.238.028.465.051.68h-1.36a14.733 14.733 0 0 1-.051-1.224h-.034c-.34.521-.742.89-1.207 1.105-.465.215-1.003.323-1.615.323-.374 0-.731-.051-1.071-.153a2.626 2.626 0 0 1-.893-.459c-.255-.204-.456-.456-.604-.756s-.221-.648-.221-1.045c0-.521.116-.958.348-1.309.232-.351.55-.638.952-.858a4.613 4.613 0 0 1 1.411-.476 9.82 9.82 0 0 1 1.726-.145h1.122v-.34a1.685 1.685 0 0 0-.476-1.164 1.717 1.717 0 0 0-.595-.391 2.266 2.266 0 0 0-.85-.145 3.118 3.118 0 0 0-1.377.297 2.67 2.67 0 0 0-.493.298 45.17 45.17 0 0 1-.425.323l-.916-.951zm4.318 3.196c-.363 0-.734.02-1.113.06-.38.04-.726.116-1.037.229s-.567.272-.765.476c-.198.204-.297.465-.297.782 0 .465.156.799.468 1.003.312.204.733.306 1.266.306.419 0 .776-.071 1.071-.212.294-.142.533-.326.714-.553.181-.227.312-.479.391-.756.079-.277.119-.553.119-.825v-.51h-.817zM656.505-32.88h1.53v1.241h.034c.192-.431.527-.779 1.003-1.045s1.025-.4 1.649-.4c.385 0 .756.06 1.113.179s.669.303.935.553c.266.249.479.569.638.96.159.391.238.853.238 1.385v5.185h-1.53v-4.76c0-.374-.051-.694-.153-.961a1.763 1.763 0 0 0-.408-.646 1.545 1.545 0 0 0-.586-.357 2.183 2.183 0 0 0-.688-.11c-.317 0-.612.051-.884.153s-.51.264-.714.485c-.204.221-.363.501-.476.841s-.17.742-.17 1.207v4.148h-1.53v-8.058z"/><path fill="#FFF" stroke="#231F20" stroke-width=".273" stroke-miterlimit="10" d="M574.335 4.177S556.338.237 555.65.154c-.69-.08-1.937-.375-3.141.158-1.206.536-3.277 2.887-3.277 2.887s-.254 1.121.851 1.303c1.104.181 3.365-1.916 3.886-2.415.522-.499 19.959 4.933 19.959 4.933l.407-2.843zM541.986 6.169l13.901-.792s3.709 11.56-6.285 12.127c-9.989.569-7.616-11.335-7.616-11.335z"/><path fill="#FFF" stroke="#231F20" stroke-width=".273" stroke-miterlimit="10" d="M560.818 5.099l13.903-.794s3.709 11.559-6.285 12.127c-9.991.57-7.618-11.333-7.618-11.333zM541.689 8.221l14.725-.836M541.822 10.521l14.722-.837M541.965 13.038l14.724-.841M560.534 7.148l14.36-.817M560.665 9.448l14.726-.84M561.151 11.942l14.015-.797"/><path fill="#FFF" stroke="#231F20" stroke-width=".273" stroke-miterlimit="10" d="M556.437 7.308s.641-.795 1.982-.91c2.026-.175 2.112.676 2.112.676M556.521 8.811s.644-.796 1.983-.912c2.026-.175 2.11.679 2.11.679"/><path d="M602.453-51.717h1.632v5.202h.136l5.321-5.202h2.278l-5.814 5.559 6.205 6.477h-2.38l-5.61-6.018h-.136v6.018h-1.632v-12.036zM613.962-46.753a4.266 4.266 0 0 1 1.496-.893 5.122 5.122 0 0 1 1.7-.298c.589 0 1.096.074 1.521.221.425.147.773.346 1.045.595.272.249.473.535.604.858.13.323.195.66.195 1.011v4.114a17 17 0 0 0 .017.782c.011.238.028.465.051.68h-1.36a14.733 14.733 0 0 1-.051-1.224h-.034c-.34.521-.742.89-1.207 1.105-.465.215-1.003.323-1.615.323-.374 0-.731-.051-1.071-.153a2.626 2.626 0 0 1-.893-.459c-.255-.204-.456-.456-.604-.756s-.221-.648-.221-1.045c0-.521.116-.958.348-1.309.232-.351.55-.638.952-.858a4.613 4.613 0 0 1 1.411-.476 9.82 9.82 0 0 1 1.726-.145h1.122v-.34a1.685 1.685 0 0 0-.476-1.164 1.717 1.717 0 0 0-.595-.391 2.266 2.266 0 0 0-.85-.145 3.118 3.118 0 0 0-1.377.297 2.67 2.67 0 0 0-.493.298 45.17 45.17 0 0 1-.425.323l-.916-.951zm4.318 3.196c-.363 0-.734.02-1.113.06-.38.04-.726.116-1.037.229s-.567.272-.765.476c-.198.204-.297.465-.297.782 0 .465.156.799.468 1.003.312.204.733.306 1.266.306.419 0 .776-.071 1.071-.212.294-.142.533-.326.714-.553.181-.227.312-.479.391-.756.079-.277.119-.553.119-.825v-.51h-.817zM623.601-47.739h1.53v1.241h.034c.102-.215.238-.411.408-.586a2.783 2.783 0 0 1 1.258-.748c.249-.074.499-.111.748-.111.25 0 .476.034.68.102l-.068 1.649a4.67 4.67 0 0 0-.374-.085 2.159 2.159 0 0 0-.374-.034c-.748 0-1.32.21-1.717.629-.396.419-.595 1.071-.595 1.955v4.046h-1.53v-8.058zM630.775-46.753a4.266 4.266 0 0 1 1.496-.893 5.122 5.122 0 0 1 1.7-.298c.589 0 1.096.074 1.521.221.425.147.773.346 1.045.595.272.249.473.535.604.858.13.323.195.66.195 1.011v4.114a17 17 0 0 0 .017.782c.011.238.028.465.051.68h-1.36a14.733 14.733 0 0 1-.051-1.224h-.034c-.34.521-.742.89-1.207 1.105-.465.215-1.003.323-1.615.323-.374 0-.731-.051-1.071-.153a2.626 2.626 0 0 1-.893-.459c-.255-.204-.456-.456-.604-.756s-.221-.648-.221-1.045c0-.521.116-.958.348-1.309.232-.351.55-.638.952-.858a4.613 4.613 0 0 1 1.411-.476 9.82 9.82 0 0 1 1.726-.145h1.122v-.34a1.685 1.685 0 0 0-.476-1.164 1.717 1.717 0 0 0-.595-.391 2.266 2.266 0 0 0-.85-.145 3.118 3.118 0 0 0-1.377.297 2.67 2.67 0 0 0-.493.298 45.17 45.17 0 0 1-.425.323l-.916-.951zm4.318 3.196c-.363 0-.734.02-1.113.06-.38.04-.726.116-1.037.229s-.567.272-.765.476c-.198.204-.297.465-.297.782 0 .465.156.799.468 1.003.312.204.733.306 1.266.306.419 0 .776-.071 1.071-.212.294-.142.533-.326.714-.553.181-.227.312-.479.391-.756.079-.277.119-.553.119-.825v-.51h-.817zM640.023-43.71c0-.589.11-1.139.332-1.649.221-.51.524-.958.909-1.343a4.267 4.267 0 0 1 3.043-1.242 4.265 4.265 0 0 1 3.953 2.585c.221.51.332 1.06.332 1.649s-.11 1.142-.332 1.657c-.221.516-.524.963-.91 1.343a4.322 4.322 0 0 1-3.043 1.233 4.31 4.31 0 0 1-3.043-1.233 4.174 4.174 0 0 1-.909-1.343 4.142 4.142 0 0 1-.332-1.657zm1.632 0c0 .408.062.785.187 1.13.125.346.3.64.527.884.227.244.504.437.833.578a2.76 2.76 0 0 0 1.105.212c.408 0 .776-.07 1.105-.212a2.44 2.44 0 0 0 .833-.578 2.55 2.55 0 0 0 .527-.884c.125-.346.187-.723.187-1.13 0-.408-.062-.785-.187-1.131-.125-.345-.301-.64-.527-.884s-.504-.436-.833-.578a2.76 2.76 0 0 0-1.105-.212c-.408 0-.776.071-1.105.212-.329.142-.606.334-.833.578s-.402.539-.527.884a3.305 3.305 0 0 0-.187 1.131zM651.361-52.533h1.53v8.296l3.468-3.485h2.125l-3.757 3.655 4.08 4.386h-2.176l-3.74-4.182v4.182h-1.53v-12.852zM662.19-43.149c0 .351.077.671.229.96s.354.535.604.739c.249.204.538.363.867.476.329.113.668.17 1.02.17.476 0 .889-.11 1.241-.332a4.02 4.02 0 0 0 .969-.875l1.156.884c-.85 1.099-2.04 1.649-3.57 1.649-.635 0-1.21-.108-1.726-.323a3.746 3.746 0 0 1-1.309-.893 3.937 3.937 0 0 1-.824-1.343 4.74 4.74 0 0 1-.289-1.674c0-.6.104-1.159.314-1.675.209-.516.499-.963.867-1.343s.808-.677 1.318-.893a4.244 4.244 0 0 1 1.666-.323c.714 0 1.317.125 1.81.374a3.6 3.6 0 0 1 1.216.978c.317.402.546.856.688 1.36.142.504.212 1.017.212 1.538v.544h-6.459zm4.829-1.224a3.225 3.225 0 0 0-.162-.935 2.07 2.07 0 0 0-.434-.74 2.01 2.01 0 0 0-.723-.493 2.642 2.642 0 0 0-1.011-.179 2.501 2.501 0 0 0-2.32 1.521 2.085 2.085 0 0 0-.179.825h4.829z"/><path fill="#C64A34" d="M935.49 105.077c0 2.373-2.5 4.297-6.338 4.297-3.139 0-5.029-1.924-5.029-4.297 0-2.372 1.891-4.295 5.029-4.295 3.838 0 6.338 1.923 6.338 4.295zM840.857 105.077c0 2.373 2.5 4.297 6.339 4.297 3.139 0 5.028-1.924 5.028-4.297 0-2.372-1.89-4.295-5.028-4.295-3.839 0-6.339 1.923-6.339 4.295z"/><path fill="#58595B" d="M928.232 132.752v24.168a4.326 4.326 0 0 1-4.324 4.325h-5.355a4.326 4.326 0 0 1-4.326-4.325v-24.168h14.005zM848.115 132.752v24.168a4.326 4.326 0 0 0 4.325 4.325h5.354a4.325 4.325 0 0 0 4.326-4.325v-24.168h-14.005z"/><path fill="#F05B40" d="M851.744 104.983c-1.968 3.169-8.662 17.638-4.154 34.11 3.081 11.262 19.069 8.528 40.584 8.528s37.502 2.733 40.584-8.528c4.508-16.473-2.188-30.941-4.154-34.11h-72.86z"/><path fill="#D0D2D3" d="M888.174 115.155c-11.148 0-33.62-1.945-36.807-5.662-3.184-3.717 5.31-23.181 10.088-27.958 4.777-4.778 18.933-5.211 26.719-5.211s21.941.433 26.719 5.211c4.777 4.777 13.271 24.241 10.087 27.958-3.186 3.717-25.658 5.662-36.806 5.662z"/><path fill="#404041" d="M888.174 112.507c-16.099 0-31.543-3.33-32.901-6.447-1.358-3.116 6.578-20.225 9.534-23.101 2.957-2.878 18.363-3.481 23.367-3.481s20.41.604 23.366 3.481c2.957 2.876 10.894 19.984 9.536 23.101-1.359 3.117-16.805 6.447-32.902 6.447z"/><path fill="#E6E7E8" d="M911.812 127.505c-2.894-2.895 8.933-16.494 13.864-9.84 4.94 6.668-10.912 12.791-13.864 9.84z"/><circle fill="#FFF" cx="918.414" cy="122.872" r="2.817"/><circle fill="#FFF" cx="914.167" cy="125.873" r="1.232"/><circle fill="#F9A51A" cx="923.079" cy="119.636" r="1.849"/><path fill="#404041" d="M888.174 132.752c-19.001 0-21.67-4.045-20.248-6.304 1.42-2.26 15.414-2.114 20.248-2.114s18.828-.146 20.248 2.114c1.422 2.259-1.247 6.304-20.248 6.304z"/><path fill="#E6E7E8" d="M864.535 127.505c2.895-2.895-8.934-16.494-13.864-9.84-4.94 6.668 10.912 12.791 13.864 9.84z"/><circle fill="#FFF" cx="857.934" cy="122.872" r="2.817"/><circle fill="#FFF" cx="862.181" cy="125.873" r="1.232"/><circle fill="#F9A51A" cx="853.269" cy="119.636" r="1.849"/><path fill="#F27052" d="M888.174 149.179c-15.12 0-20.572 1.723-28.258 1.723-10.557 0-13.818-3.711-13.669-11.877.109-5.933 19.59-4.207 41.927-4.207s41.815-1.726 41.926 4.207c.15 8.166-3.111 11.877-13.668 11.877-7.686-.001-13.139-1.723-28.258-1.723z"/><path fill="#F05B40" d="M888.174 146.146c-19.22 0-25.797 2.215-30.239 2.215-5.144 0-5.627-3.127-3.429-5.33 3.729-3.742 25.582-2.707 33.668-2.707 8.085 0 29.938-1.035 33.668 2.707 2.198 2.203 1.715 5.33-3.429 5.33-4.442-.001-11.02-2.215-30.239-2.215z"/><path fill="#E6E7E8" d="M888.174 131.44c-8.505 0-17.227-2.287-16.313-3.68.913-1.395 11.479-1.457 16.313-1.457s15.399.062 16.312 1.457c.915 1.393-7.808 3.68-16.312 3.68z"/><path opacity=".1" fill="#231F20" d="M888.174 76.324c-7.787 0-21.941.433-26.719 5.211-3.312 3.311-8.402 13.669-10.16 20.957-.852-1.033-2.25-1.71-4.099-1.71-3.839 0-6.339 1.923-6.339 4.295 0 2.373 2.5 4.297 6.339 4.297 1.041 0 1.929-.227 2.671-.598-2.418 5.732-5.414 16.412-2.729 28.391-.568.516-.878 1.128-.892 1.857-.062 3.389.477 5.998 1.868 7.906v9.989a4.326 4.326 0 0 0 4.325 4.325h5.354a4.325 4.325 0 0 0 4.326-4.325v-6.069c6.642-.274 12.417-1.672 26.054-1.672V76.324z"/><path fill="#FFDAB3" d="M878.496 160.026c0 3.681-2.986 7.666-6.666 7.666-3.682 0-6.666-3.985-6.666-7.666 0-3.682 2.984-5.666 6.666-5.666 3.68 0 6.666 1.985 6.666 5.666zM783.848 160.026c0 3.681-2.985 7.666-6.666 7.666-3.682 0-6.666-3.985-6.666-7.666 0-3.682 2.984-5.666 6.666-5.666 3.68 0 6.666 1.985 6.666 5.666z"/><path fill="#FFDAB3" d="M876.023 166.407c4.974-2.069 10.977-2.231 12 .227 1.021 2.454-3.324 6.601-8.297 8.67-4.974 2.07-8.691 1.279-9.713-1.176-1.023-2.457 1.038-5.65 6.01-7.721z"/><path fill="#FFDAB3" d="M908.734 173.542c0 3.398-12.303 6.154-23.075 6.154-10.77 0-15.929-2.756-15.929-6.154s5.159-6.154 15.929-6.154c10.773 0 23.075 2.756 23.075 6.154z"/><path fill="#60C8DD" d="M826.875 216.654H821.9l-7.322 51.037 9.809 8.674 9.81-8.674z"/><path fill="#00BDD6" d="M827.652 216.654l6.545-13.301h-19.619l6.543 13.301z"/><path fill="#FFDAB3" d="M862.33 196.079c-4.848 4.85-19.832 7.273-37.814 7.273-17.984 0-32.969-2.424-37.816-7.273-9.7-9.7-15.594-77.715-5.894-87.414 9.697-9.699 77.72-9.701 87.419-.002s3.806 77.717-5.895 87.416z"/><path opacity=".05" fill="#231F20" d="M824.516 203.353c17.982 0 32.967-2.424 37.814-7.273 9.701-9.699 15.594-77.717 5.895-87.416-.693-.693-1.691-1.334-2.936-1.928-.016 7.146.346 14.975 1.125 23.417 7.15 77.349-22.799 69.186-47.41 66.812-16.473-1.589-21.781-.184-22.432 3.68 7.118 1.803 16.969 2.708 27.944 2.708z"/><path fill="#69502E" d="M776.479 154.36c6.833 0 11.51-30.646 8.02-40.785 13.254 13.254 87.881-21.445 87.881 40.939 11.693 0 16.748-20.951 15.043-39.91-1.928-21.445-10.42-30.574.904-39.49-25.781-12.287-95.354-10.146-112.46 11.059-7.47-2.169-14.938 15.12-14.938 33.009-.001 19.516 7.673 35.178 15.55 35.178z"/><g><circle fill="#404041" cx="794.855" cy="146.505" r="6.867"/><circle fill="#FFF" cx="796.3" cy="145.06" r="3.252"/></g><g><circle fill="#404041" cx="854.174" cy="146.505" r="6.867"/><circle fill="#FFF" cx="855.62" cy="145.06" r="3.253"/></g><path fill="#FFF" d="M841.621 169.298c0 5.592-3.805 14.216-17.107 14.216-13.301 0-17.106-8.624-17.106-14.216 0-1.736 7.659-4.096 17.106-4.096 9.449 0 17.107 2.36 17.107 4.096z"/><path fill="#E6E7E8" d="M347.432 197.797c-18.729 2.084-28.34 29.494-28.34 94.412h24.518c0-40.202-.008-75.479 6.031-75.479l-2.209-18.933z"/><path fill="#F1F1F2" d="M344.663 286.405a594.382 594.382 0 0 0-.111 11.621h24.518c0-3.932 0-7.813.006-11.621h-24.413z"/><path fill="#6D6E70" d="M866 292.216c0 13.514-1.715 17.414-7.229 17.414H790.24c-5.514 0-7.229-3.9-7.229-17.414H866z"/><path fill="#E6E7E8" d="M876.137 201.13c28.807 9.473 61.764 8.84 68.471-4.353l19.678 5.59c-12.969 27.502-48.842 37.8-90.381 17.894l2.232-19.131z"/><path fill="#F1F1F2" d="M861.297 181.315l18.445 11.857a47.136 47.136 0 0 0 9.27-13.228l-19.677-5.59c-1.491 2.934-4.286 5.243-8.038 6.961z"/><path opacity=".05" fill="#231F20" d="M964.285 202.367l-6.678-1.897c-3.947 12.973-17.961 25.141-38.514 25.141-24.451 0-35.686-5.812-49.322-11.91l-10.717 71.287h6.961l7.805-64.674c41.491 19.832 77.508 9.529 90.465-17.947z"/><path fill="#6D6E70" d="M857.326 374.485h-14.738l1.445-64.855h11.846z"/><path fill="#231F20" d="M783.012 284.987H866v7.229h-82.988z"/><path fill="#BBBDBF" d="M817.709 284.987h13.594v7.229h-13.594z"/><path fill="#6D6E70" d="M791.686 374.485h14.738l-1.445-64.855h-11.846z"/><path opacity=".2" fill="#231F20" d="M884.326 143.337c-3.432.638-6.521-.555-7.178-3.699-8.799-42.201-43.145-34.521-69.741-30.945-26.596 3.578-25.493-9.836-25.493-9.836s-4.133-1.117-2.104 12.197c3.676 24.109-3.332 43.307-11.776 37.224 2.517 3.841 5.466 6.083 8.444 6.083 6.833 0 11.51-30.646 8.02-40.785 13.254 13.254 87.881-21.445 87.881 40.939 5.408 0 9.392-4.487 11.947-11.178zM888.326 75.114c-17.213-1.967-14.084 5.93-11.178 15.172 2.096 6.664 7.447 13.293 10.27 24.269-1.938-21.409-10.406-30.532.908-39.441zM847.432 374.485l1.379-71.056h-45l1.168 6.201h39.054l-1.445 64.855zM790.24 309.63h2.893l-1.447 64.855h6.046l-1.431-71.057c-4.326 0-6.606-.927-6.785-11.213h-6.504c0 13.514 1.715 17.415 7.228 17.415z"/><path fill="#FFDAB3" d="M672.18 252.764c13.414-4.257 21.602-12.987 24.316-26.83 2.617-13.347 2.941-27.642 2.374-41.21a151.71 151.71 0 0 0-.487-7.361c-.461-.16-.906-.301-1.327-.421l.024-.041-.177-.003c-2.5-.694-4.176-.729-4.176-.729l-23.432.335-23.432-.335s-1.676.034-4.176.729l-.177.003.024.041c-7.394 2.107-21.671 9.967-21.671 39.252 0 22.2 6.943 36.44 13.029 44.659 12.743-4.414 26.445-4.013 39.288-8.089z"/><path opacity=".05" fill="#231F20" d="M662.841 245.003c17.982 0 32.967-2.424 37.814-7.273 9.701-9.699 15.594-77.717 5.895-87.416-.693-.693-1.691-1.334-2.936-1.928-.016 7.146.346 14.975 1.125 23.417 7.15 77.349-22.799 69.186-47.41 66.812-16.473-1.589-21.781-.184-22.432 3.68 7.119 1.804 16.97 2.708 27.944 2.708z"/><g><path fill="#C6F" d="M23.169 56.534s-2.721 27.987-6.077 32.785c-3.356 4.798-15.671 9.151 0 8.474 3.124-.135 4.784-.409 8.629-2.37 3.845-1.962 4.501 3.672 8.134.85 4.251-3.303 3.939-.85 7.588-.85 3.554 0 6.987 2.318 9.12 1.572 2.132-.745-3.068-8.474-3.068-8.474s-4.292-6.203-2.16-13.413c2.133-7.21-.793-17.653-.793-17.653l-21.373-.921z"/><path fill="#E6E7E8" d="M46.849 55.815l-12.703-2.23-12.702 2.23 2.491 24.713h20.423zM45.55 99.19h-7.227c-.379 0-.672-.382-.672-.741v-2.405h5.765c2.333 0 2.134 3.146 2.134 3.146zM23.314 99.19h7.227c.379 0 .672-.382.672-.741v-2.405h-5.765c-2.333 0-2.134 3.146-2.134 3.146z"/><path fill="#FFDAB3" d="M40.687 32.34l.006-.011h-.043a4.623 4.623 0 0 0-1.027-.18l-5.766.082-5.766-.082s-.413.009-1.027.18h-.044l.006.011c-1.819.519-5.333 2.452-5.333 9.658 0 9.724 5.413 13.242 5.413 13.242s1.969 1 7.217.984c5.088-.017 6.283-.984 6.283-.984s5.413-3.519 5.413-13.242c0-7.206-3.513-9.14-5.332-9.658z"/><ellipse fill="#FFDAB3" cx="21.693" cy="43.003" rx="1.476" ry="1.649"/><path fill="#69502E" d="M23.408 41.956c1.585 0 2.67-6.708 1.86-8.928 3.074 2.9 20.385-4.694 20.385 8.961 2.713 0 3.103-4.586 2.708-8.735-.447-4.694-8.154-6.692-5.527-8.645-5.98-2.689-15.576-.945-19.545 3.696-1.732-.475-3.489 2.034-3.489 5.95.001 4.272 1.781 7.701 3.608 7.701z"/><path d="M44.358 77.702L34.16 80.476l-10.198-2.773s-.36 4.506.856 4.618c.652.061 5.23 2.763 9.342 2.745 4.112.018 8.69-2.685 9.342-2.745 1.216-.113.856-4.619.856-4.619z"/><path opacity=".2" fill="#231F20" d="M47.824 40.279c-.811.156-1.27-.167-1.44-.937-1.84-8.331-10.195-7.575-15.994-6.877-6.303.759-5.534-2.175-5.534-2.175s-.977-1.013-.497 2.264c.869 5.933-.878 9.878-2.875 8.381.595.945 1.628.793 2.333.799.989.009 2.097-6.007 1.452-8.706 3.187 3.124 19.662-4.732 20.374 8.369 1.278 0 1.577.528 2.181-1.118z"/><path d="M29.923 82.37l1.313 13.902h-5.688l2.844-13.905zM39.108 82.37l-1.313 13.902h5.688L40.64 82.367z"/><path fill="#904CFF" stroke="#C6F" stroke-miterlimit="10" d="M40.353 58.7c-.371.037-4.671-.03-5.674-.047v-.003l-.105.001-.105-.001v.003c-1.002.017-5.302.084-5.673.047-.42-.041-3.613 3.321-3.483 4.254.128.92 8.306 9.991 9.261 9.257.956.734 9.134-8.337 9.262-9.257.129-.933-3.063-4.295-3.483-4.254z"/><g fill="#C6F"><path d="M28.745 67.097l-.27-.479v-7.653l.27-.281v8.413zm.539.281h-.27v-8.694h.27v8.694zm.54.738l-.27-.281v-9.151h.27v9.432zm.54.563l-.27-.281v-9.714h.27v9.995zm.157-6.871l1.589-3.124h.3l-1.589 3.124 1.803 9.072-.339-.305-1.764-8.767zm.607 0l1.585-3.124h.3l-1.585 3.124 1.898 9.665-.364-.299-1.834-9.366zm.603 0l1.586-3.124h.3l-1.585 3.124 2.026 10.033h-.3l-2.027-10.033zm.604 0l1.585-3.124h.3l-1.585 3.124 2.025 10.445-.369-.122-1.956-10.323z"/><path d="M36.946 63.717h-.303l-2.148-4.751.469 13.106-.344.153-.395-13.542h.304l2.417 5.034zm-2.181-3.768l.27.562.413 11.245-.243.084-.44-11.891zm2.792 3.768h-.307l-2.414-5.033h.308l2.413 5.033zm-2.252-2.641l.27.559.398 9.716-.254.203-.414-10.478zm5.007-2.11l-2.148 4.751h-.307l-2.41-5.033h.304l2.264 4.439 2.26-4.439.308.281v7.934l-.27.281v-8.214zm-4.468 3.236l.27.56.37 7.884-.236.475-.404-8.919zm1.807-.259l-.157-.312 1.559-2.947h.307l-1.709 3.259zm.311.645l-.154-.308 1.859-3.597h.304l-2.009 3.905zm.731-.422l.27-.56v6.979h-.27v-6.419zm.54-1.135l.27-.56v7.552l-.27.281v-7.273zm.539-1.118l.27-.563v7.83l-.27.562v-7.829z"/></g><path fill="#FFDAB3" d="M23.097 74.59c-1.294-.863-2.391-.847-2.817-.207a.966.966 0 0 0-.149.449c-.705-.027-1.373.153-1.915.574-1.523 1.181-1.492 3.77.068 5.78 1.56 2.013 4.059 2.686 5.582 1.506 1.303-1.012 1.464-3.053.507-4.881.268-.034.478-.13.593-.303.425-.639-.575-2.056-1.869-2.918z"/><path fill="#E6E7E8" d="M23.622 55.708s-7.874.073-8.366 8.145 1.805 13.377 1.805 13.377l6.562-2.121s-2.732-5.251-3.281-8.277c-.541-2.979.676-5.031 2.16-6.415 3.507-3.274 1.12-4.709 1.12-4.709z"/><path opacity=".05" fill="#231F20" d="M22.368 60.129c-3.763 0-4.366 8.199.292 15.298l.962-.318c0-.43-6.194-9.37-1.745-13.87l1.22 13.352 2.303 2.613c-1.097-8.229-2.032-17.075-3.032-17.075z"/><path fill="#FFDAB3" d="M45.477 73.781c1.294-.863 2.392-.847 2.817-.207a.955.955 0 0 1 .149.449c.705-.027 1.373.153 1.915.574 1.523 1.181 1.492 3.77-.068 5.781s-4.059 2.685-5.582 1.505c-1.303-1.011-1.464-3.052-.507-4.88-.268-.035-.478-.131-.593-.304-.425-.638.575-2.054 1.869-2.918z"/><path opacity=".05" fill="#231F20" d="M45.259 43.923c.014.38-.2.85-.298 1.207-.246.892-.5 1.783-.809 2.656-.618 1.754-1.298 4.003-2.741 5.265-1.143.999-2.572 1.974-4.016 2.321-2.113.51-5.049.652-5.444.744.133.154.444-.025.65.042 0 0 1.507.066 3.28.066 3.543 0 4.846-1.073 4.846-1.073s3.381-2.249 4.852-8.601c.64-2.764.344-2.363-.32-2.627z"/><path fill="#E6E7E8" d="M45.336 55.708s7.874.073 8.366 8.145-1.805 13.377-1.805 13.377l-6.562-2.613s2.732-4.759 3.281-7.785c.54-2.979-.677-5.031-2.161-6.415-3.506-3.274-1.119-4.709-1.119-4.709z"/><ellipse fill="#FFDAB3" cx="46.019" cy="43.003" rx="1.476" ry="1.649"/><path opacity=".05" fill="#231F20" d="M46.457 60.416c3.359 0 3.591 7.405.083 14.59l-.958-.39c.301-1.188 6.418-9.288.875-14.2l-1.47 13.678-1.076 1.139c1.096-8.23 1.546-14.817 2.546-14.817z"/><path fill="#F1F1F2" d="M17.06 77.229l6.562-2.121-.915-1.748-6.3 1.935z"/><path fill="#FFF" d="M36.188 40.648s-1.193 5.823 2.755 5.864 4.194-1.692 4.317-2.836c.123-1.142-.164-3.028-.164-3.028h-6.908zM25.899 40.744s-1.227 5.823 2.833 5.864 4.312-1.692 4.439-2.835c.126-1.143-.169-3.029-.169-3.029H25.899z"/><path fill="#F1F1F2" d="M44.693 74.405l1.502-1.045 6.297 2.138-.595 1.731z"/><path fill="#C6F" d="M47.345 41.971s-.698-1.164-1.114-1.386c-.415-.222-.849-.1-1.087-.064-.228.033-1.605.041-1.744.042-.038-.181-.065-.283-.065-.283l-7.49.132s-.1.43-.159 1.068c-.024-.096-.177-.444-1.152-.399-.747.035-1.12.464-1.12.464v.276a9.218 9.218 0 0 0-.227-1.364l-7.489.131s-.018.077-.042.207c-.887-.023-3.61-.094-3.805-.112-.231-.022-.656-.12-1.043.123-.388.244-.995 1.443-.995 1.443s.006.453.38.508.882-.896 1.042-1.113c.133-.178 3.213.172 4.282.299-.086 1.344.058 3.349 1.455 4.412v.003h.004c.601.455 1.429.738 2.572.719 3.532-.062 3.997-2.89 3.898-4.829.1-.098.46-.402 1.087-.432.771-.036 1.027.175 1.113.312-.053 1.943.467 4.834 4.049 4.771 3.745-.064 4.041-3.239 3.874-5.167.33-.075 2.106-.472 2.269-.284.178.208.759 1.129 1.143 1.054s.364-.531.364-.531zM32.81 40.955c.024.124.05.277.075.449h-6.841c.016-.124.031-.237.047-.332l6.719-.117zm-6.279 4.165a3.63 3.63 0 0 1-.233-.492h6.375a3.33 3.33 0 0 1-.228.492h-5.914zm-.369-.929a5.6 5.6 0 0 1-.106-.492h6.854c-.025.165-.056.33-.098.492h-6.65zm-.16-.928a7.003 7.003 0 0 1-.03-.493h7.009a6.886 6.886 0 0 1-.02.493h-6.959zm-.029-.93c.005-.173.014-.338.026-.492h6.939c.016.155.027.32.035.492h-7zm3.567 4.25l-.105.001a4.184 4.184 0 0 1-1.425-.228h2.911a4.49 4.49 0 0 1-1.381.227zm2.211-.663h-4.545a2.583 2.583 0 0 1-.369-.363h5.295a2.673 2.673 0 0 1-.381.363zm11.206-5.143c.021.107.044.236.065.381H36.2c.012-.096.025-.186.037-.262l6.72-.119zm-6.316 4.096a3.545 3.545 0 0 1-.219-.491h6.425c-.061.17-.134.334-.219.491h-5.987zm-.349-.929a5.137 5.137 0 0 1-.098-.491h6.874a5.12 5.12 0 0 1-.094.491h-6.682zm-.148-.928a7.564 7.564 0 0 1-.024-.492h7.009c0 .161-.006.326-.018.492h-6.967zm-.021-.929a9.91 9.91 0 0 1 .029-.492h6.925c.017.155.029.319.039.492h-6.993zm3.564 4.318l-.107.001c-.618 0-1.155-.101-1.609-.296h3.281c-.444.184-.965.285-1.565.295zm2.295-.732h-4.708a2.68 2.68 0 0 1-.352-.362h5.413a2.57 2.57 0 0 1-.353.362z"/></g><path fill="none" stroke="#231F20" stroke-miterlimit="10" d="M53.771 73.872h69.871M53.771 83.207h69.871M53.115 63.722h69.87"/><path fill="#231F20" d="M81.257 66.064c-4.313 4.417-12.084 0-12.084 0l-2.365 13.669a4.306 4.306 0 0 0-2.01-.503c-2.232 0-4.042 1.642-4.042 3.667 0 2.024 1.81 3.666 4.042 3.666 1.687 0 3.129-.938 3.735-2.271l.057.021.056-.351c.114-.34.194-.693.194-1.066 0-.033-.01-.063-.011-.096l2.011-12.737 9 .583c.001.001 3.126-6.332 1.417-4.582zM99.702 58.01c-4.313 4.417-12.084 0-12.084 0l-2.365 13.669a4.306 4.306 0 0 0-2.01-.503c-2.232 0-4.042 1.642-4.042 3.667 0 2.024 1.81 3.666 4.042 3.666 1.687 0 3.129-.938 3.735-2.271l.057.021.056-.351c.114-.34.194-.693.194-1.066 0-.033-.01-.063-.011-.096l2.011-12.737 9 .583c0 .001 3.126-6.332 1.417-4.582zM111.473 67.51c-4.313 4.417-12.084 0-12.084 0l-2.365 13.669a4.306 4.306 0 0 0-2.01-.503c-2.232 0-4.042 1.642-4.042 3.667 0 2.024 1.81 3.666 4.042 3.666 1.687 0 3.129-.938 3.735-2.271l.057.021.056-.351c.114-.34.194-.693.194-1.066 0-.033-.01-.063-.011-.096l2.011-12.737 9 .583c.001.001 3.126-6.332 1.417-4.582z"/></svg>