<svg xmlns="http://www.w3.org/2000/svg" width="200" height="200" viewBox="0 0 200 200"><path fill="#D1D3D4" d="M196.697 184.439c0 6.627-5.373 12-12 12H15.666c-6.627 0-12-5.373-12-12V15.408c0-6.627 5.373-12 12-12h169.032c6.627 0 12 5.373 12 12v169.031z"/><ellipse fill="#BCBEC0" cx="101.924" cy="74.65" rx="32.578" ry="18.119"/><path fill="none" d="M2.619 21.875h193.38V80.76H2.619z"/><text transform="translate(47.167 42.464)" font-family="'MyriadPro-Bold'" font-size="29">ADD AN</text><path fill="none" d="M2.619 152.538H196v58.885H2.619z"/><text transform="translate(55.766 173.128)" font-family="'MyriadPro-Bold'" font-size="29">IMAGE</text><path fill="#6D6E71" d="M44.432 66.822h111.499v59.582H44.432z"/><circle fill="#BCBEC0" cx="101.923" cy="96.614" r="18.119"/><circle fill="#E6E7E8" cx="101.923" cy="96.614" r="16.116"/></svg>